<svg width="108" height="108" viewBox="0 0 108 108" fill="none" xmlns="http://www.w3.org/2000/svg">
<path d="M54 76.5L58.5 67.5V44.361C66.2445 42.3495 72 35.361 72 27C72 17.073 63.927 9 54 9C44.073 9 36 17.073 36 27C36 35.361 41.7555 42.3495 49.5 44.361V67.5L54 76.5ZM45 27C45 22.0365 49.0365 18 54 18C58.9635 18 63 22.0365 63 27C63 31.9635 58.9635 36 54 36C49.0365 36 45 31.9635 45 27Z" fill="white"/>
<path d="M73.2015 47.5333L70.803 56.2093C82.4625 59.4313 90 65.6278 90 71.9998C90 80.5138 75.2175 89.9998 54 89.9998C32.7825 89.9998 18 80.5138 18 71.9998C18 65.6278 25.5375 59.4313 37.2015 56.2048L34.803 47.5288C18.8865 51.9298 9 61.3033 9 71.9998C9 87.1378 28.7685 98.9998 54 98.9998C79.2315 98.9998 99 87.1378 99 71.9998C99 61.3033 89.1135 51.9298 73.2015 47.5333Z" fill="white"/>
</svg>
