<svg width="396" height="182" viewBox="0 0 396 182" fill="none" xmlns="http://www.w3.org/2000/svg">
<rect x="6.57812" y="26.4321" width="380" height="150" rx="25" fill="#F0420A"/>
<path d="M310.078 18.4321C282.578 12.9321 -5.42224 60.9322 0.0777617 105.432C5.57776 149.932 295.578 187.432 337.578 180.932C379.578 174.432 398.578 125.432 395.078 84.4322C391.578 43.4323 337.578 23.9322 310.078 18.4321Z" fill="white" fill-opacity="0.2"/>
<path d="M301.796 0.00422139C257.796 -0.995779 128.296 176.004 146.796 176.004C159.953 176.004 222.673 176.004 271.295 176.004L319.296 176.004C356.796 176.004 424.296 92.0043 381.296 93.0042C338.296 94.0042 336.796 78.5042 345.796 68.5042C354.796 58.5043 345.796 1.00422 301.796 0.00422139Z" fill="white" fill-opacity="0.1"/>
</svg>
