<svg width="26" height="23" viewBox="0 0 26 23" fill="none" xmlns="http://www.w3.org/2000/svg">
<path d="M22.3751 22.4688H22.2158C3.79389 21.5153 1.17827 7.52594 0.81264 3.25656C0.78318 2.92461 0.826786 2.5907 0.940961 2.27394C1.05514 1.95719 1.23763 1.66382 1.478 1.41065C1.71837 1.15748 2.01188 0.949487 2.34171 0.798583C2.67155 0.64768 3.03123 0.556834 3.40014 0.531251H8.56577C8.94129 0.530924 9.30827 0.632087 9.61917 0.821637C9.93007 1.01119 10.1706 1.28039 10.3095 1.59438L11.7345 4.75C11.8717 5.05674 11.9058 5.393 11.8324 5.71701C11.7591 6.04103 11.5816 6.3385 11.322 6.5725L9.32514 8.38656C9.63706 9.98188 10.4859 11.4525 11.7569 12.5994C13.0279 13.7463 14.6596 14.5141 16.4314 14.7991L18.4658 12.985C18.7297 12.7539 19.0633 12.5979 19.4251 12.5364C19.7869 12.4749 20.1608 12.5106 20.5001 12.6391L24.0345 13.9131C24.3781 14.0421 24.6713 14.2603 24.8767 14.5398C25.082 14.8192 25.1903 15.1474 25.1876 15.4825V19.9375C25.1876 20.6088 24.8913 21.2527 24.3639 21.7274C23.8364 22.2021 23.1211 22.4688 22.3751 22.4688ZM3.62514 2.21875C3.3765 2.21875 3.13804 2.30765 2.96223 2.46588C2.78641 2.62411 2.68764 2.83872 2.68764 3.0625V3.13C3.11889 8.125 5.88452 19.9375 22.3189 20.7812C22.4421 20.7881 22.5655 20.773 22.6822 20.7368C22.7988 20.7006 22.9064 20.6441 22.9987 20.5704C23.0911 20.4967 23.1663 20.4073 23.2202 20.3074C23.2741 20.2075 23.3055 20.099 23.3126 19.9881V15.4825L19.7783 14.2084L17.0876 16.6131L16.6376 16.5625C8.48139 15.6428 7.37514 8.30219 7.37514 8.22625L7.31889 7.82125L9.98139 5.39969L8.57514 2.21875H3.62514Z" fill="black"/>
</svg>
