<svg width="34" height="31" viewBox="0 0 34 31" fill="none" xmlns="http://www.w3.org/2000/svg">
<path d="M31.6197 10.9253L29.3397 4.08533C29.0089 3.08946 28.3728 2.22316 27.5215 1.60951C26.6703 0.995852 25.6474 0.666062 24.598 0.666994H9.40134C8.35199 0.666062 7.32903 0.995852 6.47782 1.60951C5.6266 2.22316 4.99042 3.08946 4.65968 4.08533L2.37967 10.9253C1.77338 11.179 1.25561 11.6063 0.891453 12.1534C0.527296 12.7005 0.333007 13.3431 0.333008 14.0003V22.3337C0.333008 23.5637 1.00634 24.627 1.99967 25.2053V29.0003C1.99967 29.4424 2.17527 29.8663 2.48783 30.1788C2.80039 30.4914 3.22431 30.667 3.66634 30.667H5.33301C5.77504 30.667 6.19896 30.4914 6.51152 30.1788C6.82408 29.8663 6.99968 29.4424 6.99968 29.0003V25.667H26.9997V29.0003C26.9997 29.4424 27.1753 29.8663 27.4878 30.1788C27.8004 30.4914 28.2243 30.667 28.6663 30.667H30.333C30.775 30.667 31.199 30.4914 31.5115 30.1788C31.8241 29.8663 31.9997 29.4424 31.9997 29.0003V25.2053C32.5053 24.9153 32.9256 24.4972 33.2182 23.9931C33.5108 23.4889 33.6654 22.9166 33.6663 22.3337V14.0003C33.6663 13.3431 33.4721 12.7005 33.1079 12.1534C32.7437 11.6063 32.226 11.179 31.6197 10.9253ZM9.40134 4.00033H24.5963C25.3147 4.00033 25.9513 4.45699 26.178 5.14033L28.0213 10.667H5.97801L7.81968 5.14033C7.93026 4.80832 8.14254 4.51954 8.42642 4.31492C8.71031 4.11031 9.0514 4.00024 9.40134 4.00033ZM6.16634 20.667C5.83793 20.6669 5.51275 20.6021 5.20938 20.4763C4.906 20.3505 4.63038 20.1662 4.39823 19.9339C4.16608 19.7016 3.98197 19.4259 3.85639 19.1224C3.73081 18.819 3.66623 18.4937 3.66634 18.1653C3.66645 17.8369 3.73125 17.5117 3.85702 17.2084C3.9828 16.905 4.16711 16.6294 4.39941 16.3972C4.63171 16.1651 4.90746 15.981 5.21092 15.8554C5.51437 15.7298 5.83959 15.6652 6.16801 15.6653C6.83127 15.6655 7.46728 15.9292 7.93612 16.3984C8.40496 16.8675 8.66823 17.5037 8.66801 18.167C8.66779 18.8303 8.4041 19.4663 7.93494 19.9351C7.46579 20.4039 6.8296 20.6672 6.16634 20.667ZM27.833 20.667C27.5046 20.6669 27.1794 20.6021 26.876 20.4763C26.5727 20.3505 26.297 20.1662 26.0649 19.9339C25.8328 19.7016 25.6486 19.4259 25.5231 19.1224C25.3975 18.819 25.3329 18.4937 25.333 18.1653C25.3331 17.8369 25.3979 17.5117 25.5237 17.2084C25.6495 16.905 25.8338 16.6294 26.0661 16.3972C26.2984 16.1651 26.5741 15.981 26.8776 15.8554C27.181 15.7298 27.5063 15.6652 27.8347 15.6653C28.4979 15.6655 29.134 15.9292 29.6028 16.3984C30.0716 16.8675 30.3349 17.5037 30.3347 18.167C30.3345 18.8303 30.0708 19.4663 29.6016 19.9351C29.1325 20.4039 28.4963 20.6672 27.833 20.667Z" fill="white"/>
</svg>
